<svg width="50" height="58" viewBox="0 0 50 58" fill="none" xmlns="http://www.w3.org/2000/svg">
<path d="M6.4449 40.124C5.16265 38.4992 4.01499 36.7483 3.1699 34.8548C2.16935 32.4203 1.63752 29.8307 1.50154 27.2138C1.75957 26.7599 3.34115 23.9973 4.40435 22.6839C5.56454 21.2504 7.12802 18.5184 6.56046 15.5362C6.17156 13.4929 5.72976 12.3109 5.48983 11.7688C5.78777 11.3781 6.10752 11.0021 6.45186 10.6443C7.10575 10.0109 7.81068 9.35653 8.70496 9.09757C9.49807 8.85115 10.4244 9.00708 11.043 9.57697C11.9846 10.5195 11.6676 12.0046 11.2393 13.1211C10.5729 14.7519 9.56536 16.2124 8.76251 17.7758C6.87928 21.3502 5.33343 25.221 5.15801 29.3007C5.11625 31.5826 5.22902 33.9977 6.20404 36.0967C6.23885 36.1501 6.27737 36.1951 6.31774 36.2336C6.32285 37.617 6.93729 38.9601 7.65011 40.1263C8.68268 41.7626 9.9886 43.2184 10.8936 44.9374C10.9284 45.0038 10.9618 45.0706 10.9956 45.1374C9.54309 43.4083 7.85802 41.8875 6.4449 40.124Z" fill="white"/>
<path d="M46.3091 38.5343C44.8719 42.556 42.3914 46.154 39.3192 49.1115C36.9283 48.757 29.7165 47.8641 25.388 49.2378C21.0517 50.6133 16.6467 55.5047 15.2493 57.1596C14.2107 56.6356 13.2074 56.0244 12.3502 55.2337C11.4778 54.4433 10.7385 53.524 10.0247 52.5917C9.07152 51.3145 8.1378 49.9214 7.78231 48.3481C7.52336 46.8278 8.92209 46.7401 9.79316 47.6172C10.6559 48.4052 11.2513 49.5278 12.3377 50.0453C14.0812 50.8551 15.5552 49.1454 16.8611 48.2289C18.4802 47.0153 20.2456 45.941 22.1729 45.2982C24.31 44.6777 26.6777 44.932 28.6417 45.9748C29.4241 46.4064 30.2117 46.8789 30.8127 47.5508C31.0243 47.807 31.0563 48.1537 31.4716 48.1653C31.7854 48.1825 32.0578 47.8966 32.0262 47.5852C31.9988 47.2311 31.6675 46.8594 31.4127 46.6027C29.3462 44.6675 26.4457 43.6433 23.6208 43.9213C20.6596 44.2257 18.064 45.9646 15.7459 47.7202C15.0243 48.24 14.3416 48.9157 13.4719 49.1658C13.4241 49.17 13.3782 49.1705 13.3327 49.17C13.2376 48.1801 13.0013 47.2056 12.6704 46.2691C11.9205 44.106 10.5097 42.285 9.17594 40.4569C8.48586 39.4791 7.79113 38.3486 7.51825 37.149C7.30988 36.3011 7.29457 34.5994 8.38004 34.3859C9.50126 34.7242 9.8753 36.3601 10.2415 37.3439C10.4596 37.931 10.6174 38.6276 11.177 38.9877C11.6147 39.2652 12.2059 39.1028 12.527 38.7222C13.2482 37.7639 13.9675 36.7726 14.9644 36.0774C16.7339 34.8152 19.0037 34.3112 21.1403 34.714C21.8972 34.837 22.598 35.1386 23.2217 35.5697C23.2022 35.547 23.1837 35.5233 23.1674 35.4997C23.16 35.4857 23.1526 35.4718 23.1456 35.4579C23.1688 35.5006 23.1971 35.5386 23.2282 35.5744C23.2969 35.6222 23.3651 35.6709 23.432 35.7215C23.6422 35.806 23.8431 35.7484 23.9823 35.6226C24.4047 35.4723 24.8692 34.8569 25.1885 34.5864C26.7909 33.0331 27.8518 30.9865 28.4454 28.8499C29.9082 23.3659 26.7585 17.6498 23.2403 13.6151C23.0082 13.3483 22.7618 13.0954 22.5145 12.8429C22.3697 12.6963 22.2151 12.5589 22.0768 12.4067C21.9863 12.3069 21.655 11.995 21.8253 11.8674C22.2114 11.5774 22.8551 11.75 23.2742 11.8563C24.0622 12.0558 24.8186 12.3733 25.5653 12.6898C25.8688 12.8188 26.1714 12.9501 26.4754 13.0773C26.6902 13.1668 26.9116 13.2727 27.1381 13.3293C28.1052 13.6783 28.903 12.7789 29.6079 12.2503C30.5198 11.5003 31.4252 10.7416 32.3455 10.0014C32.8054 9.63474 33.2792 9.26952 33.7721 8.90197C33.8296 8.85602 33.8899 8.81101 33.9521 8.76599C33.9535 8.76692 38.6338 11.3184 42.2225 9.05418C43.5497 10.9383 44.6259 13.0077 45.4817 15.1434C46.4558 17.7157 47.2953 20.3536 47.7779 23.0661C47.8698 23.6267 47.9515 24.1896 48.0151 24.7544C48.0731 25.0148 48.0244 25.3326 48.094 25.5967C48.0944 25.6264 48.0949 25.6556 48.0931 25.684C48.1209 26.4692 48.1306 27.2549 48.1381 28.0405C48.1729 31.6042 47.4652 35.1651 46.3091 38.5343Z" fill="white"/>
<path fill-rule="evenodd" clip-rule="evenodd" d="M49.234 26.2216C49.304 28.8936 49.002 31.5476 48.375 34.1386C47.086 40.1696 43.73 45.4956 39.158 49.5696C33.808 54.4726 26.746 58.2456 19.325 57.7966C18.186 57.7236 16.754 57.6946 14.427 56.7566C12.558 55.7766 10.945 54.3726 9.67303 52.6816C8.64903 51.4416 7.76303 50.0896 7.12103 48.6116C6.78903 47.8456 6.55102 46.9656 6.77502 46.1376C7.16102 44.7096 8.77105 44.4386 9.92505 45.1396C10.341 45.4016 10.694 45.7426 11.026 46.1026C11.258 46.3276 11.481 46.6156 11.714 46.8966C11.473 46.3016 11.052 45.7216 10.698 45.2636C9.672 43.9796 8.53002 42.7926 7.38702 41.6136C5.61002 39.7696 4.07701 37.6886 2.85101 35.4406C0.0610137 30.0516 -0.156 23.5986 1.224 17.7696C1.971 14.4796 3.27101 11.2136 5.63501 8.74564C6.75901 7.56564 8.29 6.45363 10.005 6.73563C11.217 6.89063 12.308 7.76063 12.621 8.95863C13.147 11.0056 12.03 12.9976 11.054 14.7256C10.281 16.0636 9.53003 17.4166 8.87103 18.8156C7.32703 22.0446 6.178 25.5566 6.245 29.1696C6.292 30.5186 6.38705 31.8946 6.74805 33.1996C7.42405 31.9916 8.85202 31.5886 9.96802 32.9996C10.926 34.0716 11.057 35.5846 11.714 36.8136C13.616 33.9816 16.395 32.2186 19.877 32.2916C21.172 32.3536 22.598 32.5746 23.666 33.3506C24.456 32.6456 25.118 31.9456 25.725 31.1036C26.977 29.1506 27.819 26.8626 27.762 24.5216C27.621 21.6406 26.453 18.8956 24.958 16.4636C24.012 14.9776 22.918 13.5826 21.684 12.3246C21.417 11.9756 20.805 11.6116 20.756 11.1526C20.62 10.7636 20.694 10.2786 20.97 9.98263C22.24 8.64263 24.895 10.0986 26.322 10.6206C26.66 10.7616 26.998 10.9026 27.339 11.0366C27.461 11.0776 27.588 11.1666 27.714 11.0946C28.596 10.5936 29.322 9.85863 30.116 9.23463C31.381 8.17263 32.575 7.24263 33.878 6.27663C33.951 5.70763 33.859 5.13064 33.852 4.55964C33.823 3.70564 33.546 0.824636 33.891 0.328636C35.327 -1.44236 40.945 4.47264 41.963 5.68364C44.518 8.74464 46.227 12.4346 47.455 16.2046C48.19 18.4736 48.802 20.7936 49.08 23.1676C49.083 23.3286 49.118 23.5256 49.146 23.7286C49.164 23.7836 49.174 23.8436 49.172 23.9076C49.173 23.9396 49.174 23.9706 49.176 24.0026C49.179 24.0496 49.181 24.0956 49.182 24.1406C49.213 24.8336 49.225 25.5276 49.234 26.2216ZM6.46204 38.9216C7.87504 40.6846 9.56 42.2056 11.013 43.9346C10.979 43.8676 10.946 43.8006 10.911 43.7346C10.006 42.0166 8.69999 40.5596 7.66699 38.9236C6.95399 37.7576 6.34002 36.4146 6.33502 35.0306C6.29502 34.9926 6.25601 34.9476 6.22101 34.8936C5.24601 32.7946 5.13303 30.3796 5.17603 28.0976C5.35103 24.0186 6.89603 20.1476 8.78003 16.5726C9.58203 15.0096 10.59 13.5496 11.256 11.9186C11.685 10.8016 12.002 9.31663 11.06 8.37463C10.442 7.80463 9.51505 7.64864 8.72204 7.89464C7.82805 8.15364 7.12299 8.80863 6.46899 9.44163C6.12499 9.79963 5.80502 10.1756 5.50702 10.5666C5.74702 11.1076 6.189 12.2896 6.578 14.3336C7.145 17.3156 5.58202 20.0476 4.42102 21.4816C3.35802 22.7946 1.77704 25.5576 1.51904 26.0106C1.65504 28.6286 2.18701 31.2176 3.18701 33.6516C4.03201 35.5456 5.18004 37.2966 6.46204 38.9216ZM46.326 37.3316C47.482 33.9626 48.19 30.4016 48.155 26.8376C48.148 26.0526 48.138 25.2676 48.11 24.4816C48.112 24.4536 48.112 24.4236 48.111 24.3946C48.042 24.1306 48.09 23.8126 48.032 23.5516C47.969 22.9866 47.887 22.4246 47.795 21.8636C47.312 19.1506 46.473 16.5136 45.499 13.9406C44.643 11.8056 43.567 9.73564 42.24 7.85164C38.651 10.1156 33.971 7.56464 33.969 7.56364C33.907 7.60864 33.847 7.65364 33.789 7.69964C33.297 8.06664 32.823 8.43264 32.362 8.79864C31.442 9.53864 30.537 10.2976 29.625 11.0476C28.92 11.5766 28.122 12.4756 27.155 12.1266C26.929 12.0706 26.707 11.9646 26.493 11.8746C26.188 11.7476 25.886 11.6166 25.582 11.4876C24.836 11.1706 24.079 10.8536 23.291 10.6536C22.872 10.5476 22.229 10.3746 21.842 10.6646C21.672 10.7926 22.003 11.1046 22.094 11.2046C22.232 11.3566 22.387 11.4936 22.532 11.6406C22.779 11.8926 23.025 12.1456 23.257 12.4126C26.776 16.4476 29.925 22.1636 28.463 27.6476C27.869 29.7836 26.808 31.8306 25.206 33.3836C24.886 33.6546 24.422 34.2696 24 34.4206C23.86 34.5456 23.659 34.6036 23.449 34.5186C23.382 34.4686 23.314 34.4196 23.245 34.3716C23.214 34.3366 23.186 34.2976 23.163 34.2556C23.17 34.2696 23.177 34.2836 23.185 34.2976C23.201 34.3206 23.219 34.3446 23.239 34.3676C22.615 33.9356 21.914 33.6346 21.157 33.5116C19.021 33.1086 16.751 33.6126 14.982 34.8746C13.985 35.5696 13.265 36.5616 12.544 37.5196C12.223 37.9006 11.632 38.0626 11.194 37.7856C10.635 37.4246 10.477 36.7286 10.259 36.1416C9.89203 35.1576 9.51803 33.5226 8.39703 33.1836C7.31203 33.3966 7.32703 35.0986 7.53503 35.9466C7.80803 37.1466 8.50299 38.2766 9.19299 39.2546C10.527 41.0826 11.938 42.9036 12.688 45.0666C13.018 46.0026 13.255 46.9776 13.35 47.9676C13.395 47.9676 13.441 47.9676 13.489 47.9636C14.359 47.7136 15.041 47.0376 15.763 46.5176C18.081 44.7616 20.677 43.0236 23.638 42.7186C26.463 42.4406 29.363 43.4646 31.43 45.4006C31.685 45.6566 32.016 46.0286 32.043 46.3826C32.075 46.6936 31.802 46.9796 31.489 46.9626C31.073 46.9516 31.041 46.6046 30.83 46.3486C30.229 45.6766 29.441 45.2036 28.659 44.7726C26.695 43.7296 24.327 43.4756 22.19 44.0956C20.263 44.7386 18.497 45.8126 16.878 47.0266C15.572 47.9426 14.098 49.6526 12.355 48.8426C11.268 48.3256 10.673 47.2026 9.81 46.4146C8.939 45.5376 7.54001 45.6256 7.79901 47.1456C8.15501 48.7186 9.08899 50.1116 10.042 51.3896C10.756 52.3216 11.495 53.2406 12.367 54.0316C13.225 54.8216 14.228 55.4326 15.266 55.9566C16.664 54.3026 21.069 49.4116 25.405 48.0356C29.734 46.6616 36.945 47.5546 39.336 47.9086C42.409 44.9516 44.889 41.3536 46.326 37.3316ZM32.013 25.0076C34.876 24.9916 36.973 27.1516 37.416 29.8926C37.544 30.6496 37.554 31.4216 37.547 32.1876C37.528 33.6286 37.4 35.0876 36.899 36.4496C36.288 38.3506 34.721 40.2036 32.533 39.8266C31.766 39.7026 31.082 39.2626 30.573 38.6866C29.609 37.6076 29.463 36.0916 29.525 34.7056C29.568 33.4256 29.71 32.1386 29.548 30.8616C29.466 30.1536 30.504 30.0006 30.622 30.7036C30.792 32.0396 30.66 33.3826 30.61 34.7206C30.589 35.6466 30.59 36.6216 31.036 37.4596C31.179 37.7276 31.352 37.9536 31.545 38.1406C31.563 37.7486 31.559 37.3556 31.551 36.9626C31.557 36.6096 31.491 36.2566 31.51 35.9066C31.62 35.2636 32.572 35.3286 32.588 35.9856C32.656 36.8976 32.663 37.8136 32.599 38.7256C32.886 38.7916 33.183 38.7966 33.476 38.7426C33.472 38.7126 33.47 38.6836 33.471 38.6526C33.509 37.8196 33.423 36.9876 33.31 36.1626C33.216 35.4936 34.166 35.2796 34.369 35.9246C34.415 36.3136 34.584 37.4186 34.576 38.2096C34.702 38.1046 34.824 37.9836 34.938 37.8476C35.993 36.4816 36.355 34.7096 36.436 33.0176C36.48 31.7106 36.537 30.3536 36.092 29.1016C35.531 27.4206 34.04 26.1556 32.237 26.0996C31.786 26.0376 31.13 26.3426 30.946 25.7456C30.802 25.0716 31.508 24.9846 32.013 25.0076ZM35.393 15.8506C36.008 15.5316 37.322 14.4936 37.629 15.6536C37.709 16.3406 37.911 17.7406 36.906 17.7746C36.729 17.7606 36.573 17.6646 36.412 17.5976C36.129 17.4796 35.839 17.3836 35.571 17.2326C34.948 16.9326 34.655 16.2226 35.393 15.8506ZM46.855 29.2686C47.43 29.6256 46.955 30.1676 46.76 30.6006C46.446 31.2766 46.27 32.0026 46.137 32.7326C45.804 34.6046 45.633 36.5876 44.582 38.2266C43.972 39.2376 42.849 40.1096 41.612 39.9466C39.078 39.4686 38.522 36.4576 38.55 34.2726C38.54 31.9916 38.795 29.6686 39.578 27.5166C40.32 25.4516 42.722 22.7876 45.069 22.9366C45.771 23.1596 45.476 24.0826 44.867 24.0016C43.892 24.0576 43.036 24.6646 42.339 25.3086C40.92 26.5826 40.273 28.4406 39.965 30.2756C39.622 32.4036 39.211 36.1436 40.473 37.9766C40.462 37.2156 40.456 36.4536 40.454 35.6926C40.446 35.0216 41.421 34.9306 41.534 35.5976C41.547 35.8416 41.539 36.0816 41.542 36.3256C41.552 37.0956 41.547 37.8666 41.573 38.6366C41.577 38.7006 41.568 38.7606 41.549 38.8156C41.866 38.9016 42.188 38.8726 42.497 38.7436C42.492 38.7136 42.488 38.6836 42.486 38.6516C42.453 37.6076 42.438 36.5636 42.375 35.5226C42.339 35.0006 43.011 34.7126 43.344 35.1296C43.437 35.2446 43.477 35.3996 43.46 35.5426C43.467 35.8016 43.496 36.0596 43.504 36.3186C43.526 36.8216 43.536 37.3256 43.548 37.8286C43.569 37.7986 43.589 37.7686 43.609 37.7376C44.202 36.8226 44.506 35.7616 44.704 34.6986C44.987 33.2196 45.094 31.6776 45.712 30.2856C45.947 29.8376 46.183 28.9446 46.855 29.2686ZM36.264 20.3816C36.959 20.2936 37.635 20.0736 38.25 19.7386C38.697 19.4856 39.098 19.1486 39.426 18.7526C39.747 18.4076 39.967 17.6476 40.57 17.9516C40.823 18.0866 40.943 18.4316 40.793 18.6866C40.325 19.4866 39.659 20.1766 38.855 20.6426C38.178 21.0296 37.433 21.2876 36.665 21.4216C36.135 21.5126 35.182 21.6356 35.293 20.8156C35.432 20.3056 35.86 20.4206 36.264 20.3816ZM21.69 10.7136C21.688 10.7126 21.686 10.7116 21.686 10.7116C21.667 10.7006 21.647 10.6896 21.628 10.6796L21.623 10.6776C21.627 10.6806 21.629 10.6816 21.632 10.6846C21.661 10.6986 21.687 10.7136 21.713 10.7306C21.705 10.7256 21.697 10.7196 21.69 10.7136Z" fill="#015073"/>
</svg>
