<svg width="56" height="56" viewBox="0 0 56 56" fill="none" xmlns="http://www.w3.org/2000/svg">
<g clip-path="url(#clip0_50_363)">
<path d="M0 56L3.95797 41.6274C1.51098 37.4087 0.227316 32.6312 0.240687 27.7472C0.240687 12.443 12.7564 0 28.1203 0C35.5816 0 42.5883 2.88783 47.8433 8.13118C53.1117 13.3745 56.0133 20.3479 56 27.7605C56 43.0646 43.4842 55.5076 28.1069 55.5076H28.0936C23.4269 55.5076 18.8405 54.3365 14.7622 52.1274L0 56ZM15.4709 47.1103L16.3133 47.616C19.8701 49.7186 23.9484 50.8232 28.1069 50.8365H28.1203C40.8901 50.8365 51.2932 40.4962 51.2932 27.7738C51.2932 21.6122 48.8863 15.8232 44.5138 11.4582C40.1413 7.09316 34.3113 4.69772 28.1203 4.69772C15.3505 4.68441 4.94746 15.0247 4.94746 27.7472C4.94746 32.0989 6.16427 36.3441 8.49092 40.0171L9.03915 40.8954L6.69913 49.3993L15.4709 47.1103Z" fill="white"/>
<path d="M0 56L3.95797 41.6274C1.51098 37.4087 0.227316 32.6312 0.240687 27.7472C0.240687 12.443 12.7564 0 28.1203 0C35.5816 0 42.5883 2.88783 47.8433 8.13118C53.1117 13.3745 56.0133 20.3479 56 27.7605C56 43.0646 43.4842 55.5076 28.1069 55.5076H28.0936C23.4269 55.5076 18.8405 54.3365 14.7622 52.1274L0 56ZM15.4709 47.1103L16.3133 47.616C19.8701 49.7186 23.9484 50.8232 28.1069 50.8365H28.1203C40.8901 50.8365 51.2932 40.4962 51.2932 27.7738C51.2932 21.6122 48.8863 15.8232 44.5138 11.4582C40.1413 7.09316 34.3113 4.69772 28.1203 4.69772C15.3505 4.68441 4.94746 15.0247 4.94746 27.7472C4.94746 32.0989 6.16427 36.3441 8.49092 40.0171L9.03915 40.8954L6.69913 49.3993L15.4709 47.1103Z" fill="white"/>
<path fill-rule="evenodd" clip-rule="evenodd" d="M21.1536 16.1427C20.6321 14.9849 20.0839 14.9583 19.5891 14.9449C19.188 14.9316 18.72 14.9316 18.252 14.9316C17.784 14.9316 17.0352 15.1046 16.3933 15.7967C15.7515 16.4887 13.9597 18.1655 13.9597 21.5856C13.9597 24.9925 16.4602 28.2929 16.8079 28.7586C17.1555 29.2244 21.635 36.4507 28.7085 39.232C34.592 41.5476 35.7954 41.0818 37.0657 40.9621C38.336 40.8423 41.1841 39.2853 41.7725 37.6617C42.3475 36.0381 42.3475 34.6541 42.1736 34.3613C41.9998 34.0685 41.5318 33.8955 40.8365 33.5495C40.1412 33.2035 36.7181 31.5267 36.0762 31.2872C35.4344 31.0609 34.9664 30.9411 34.5118 31.6332C34.0438 32.3252 32.7066 33.8822 32.3055 34.348C31.9043 34.8138 31.4898 34.867 30.7945 34.521C30.0991 34.175 27.8527 33.4431 25.1918 31.0742C23.1192 29.2377 21.7152 26.9621 21.3141 26.27C20.9129 25.578 21.2739 25.2054 21.6216 24.8594C21.9291 24.5533 22.3169 24.0476 22.6646 23.6484C23.0122 23.2491 23.1326 22.9564 23.3599 22.4906C23.5872 22.0248 23.4802 21.6256 23.3064 21.2796C23.1326 20.9469 21.7687 17.5134 21.1536 16.1427Z" fill="white"/>
</g>
<defs>
<clipPath id="clip0_50_363">
<rect width="56" height="56" rx="6" fill="white"/>
</clipPath>
</defs>
</svg>
